# xmcd CD database file
#
# Track frame offsets:
#	187
#	22507
#	42157
#	65612
#	83670
#	97745
#	119635
#	140535
#	159707
#
# Disc length: 2500 seconds
#
# Revision: 0
# Processed by: cddbd v1.5.1PL0 Copyright (c) Steve Scherf et al.
# Submitted via: CDex 1.51
#
DISCID=6909c209
DTITLE=阿川泰子 - TURNS BLUE
DYEAR=1900
DGENRE=Jazz
TTITLE0=THE SURVIVOR
TTITLE1=IT'S ALWAYS YOU
TTITLE2=WHEN THE WORLD TURNS BLUE(MELODIES OF LOVE)
TTITLE3=TEACH ME TONIGHT
TTITLE4=ALRIGHT,OKAY,YOU WIN
TTITLE5=SUMMERTIME
TTITLE6=LOVE IS A RUSH
TTITLE7=I CAN'T SAY NO
TTITLE8=AM I JUST A MEMORY
EXTD=
EXTT0=
EXTT1=
EXTT2=
EXTT3=
EXTT4=
EXTT5=
EXTT6=
EXTT7=
EXTT8=
PLAYORDER=
